<svg id="Layer_2" data-name="Layer 2" xmlns="http://www.w3.org/2000/svg" viewBox="0 0 599.05 151.8"><defs><style>.cls-1,.cls-2{fill:#231f20;}.cls-2{stroke:#231f20;stroke-miterlimit:10;stroke-width:3px;}</style></defs><title>findtutor logo with text</title><path class="cls-1" d="M159.2,492.75c.07,2.06,16.28,3.73,30,2.19,14.9-1.69,31.45-7.72,31.35-9.83C220.32,481.08,159.07,488.75,159.2,492.75Z" transform="translate(-116.6 -343.74)"/><path d="M185.82,411.2a5.41,5.41,0,1,0-5.4-5.41A5.41,5.41,0,0,0,185.82,411.2Z" transform="translate(-116.6 -343.74)"/><path class="cls-2" d="M192.14,345.24a74.16,74.16,0,0,0-74,74.25c0,30.24,15.49,55.05,41.69,66.69v4.44s.07,1.65.13,1.73a1.92,1.92,0,0,0,.19.23c.06.07,2.56.49,2.65.49,19.52-.06,35-5.58,46-17,16.11-16.7,17.46-39.72,17.52-45.8,6.92-6.21,11.19-14.63,11.19-24,0-19-17.62-34.42-39.28-34.42s-39.29,15.47-39.29,34.48a31,31,0,0,0,.82,6,3.39,3.39,0,0,0,0,1v66.05c-22.46-11.08-35.59-33.18-35.59-59.95a68.07,68.07,0,1,1,136.14,0c0,35.11-30.47,63-65.35,66.55a3.05,3.05,0,0,0-.92,5.83,2.88,2.88,0,0,0,1.21.25h.31l1-.11c37.53-4.27,69.83-34.59,69.83-72.51A74.34,74.34,0,0,0,192.14,345.24Zm12.19,126.93a47.74,47.74,0,0,1-19.42,12.05c.36-.4.71-.8,1.05-1.22,10.49-12.89,9.46-33.67,8.48-42.33,1.23.1,2.48.16,3.75.16a43.07,43.07,0,0,0,21.71-5.76C219.1,443.72,216,460.1,204.33,472.17Zm9.52-90.8A27,27,0,0,0,199.53,396a28.46,28.46,0,0,0-16.33-14.94,38.1,38.1,0,0,1,30.65.3Zm-38,4a3,3,0,0,0,1,.28c.78.08,18.2,2.06,19.63,23.6a14.39,14.39,0,0,0-1.36,6.43c0,4.83,4.2,8.75,4.2,8.75s4.2-3.92,4.2-8.75a15.79,15.79,0,0,0-.8-5.11c.72-22.6,17-24.84,17.72-24.92a2.3,2.3,0,0,0,.28-.06c6.53,5.18,10.63,12.58,10.63,20.78,0,7.9-3.8,15.06-9.92,20.2l0,0a36.16,36.16,0,0,1-23.22,8.12c-18.3,0-33.19-12.72-33.19-28.36C165,398.06,169.21,390.57,175.89,385.37Zm12.61,54.32c.84,6.39,2.9,27.53-6.8,39.47a23.52,23.52,0,0,1-15.65,8.2v-62C171,432.32,179.07,437.51,188.5,439.69Z" transform="translate(-116.6 -343.74)"/><path d="M213.28,411.2a5.41,5.41,0,1,0-5.41-5.41A5.41,5.41,0,0,0,213.28,411.2Z" transform="translate(-116.6 -343.74)"/><path d="M319.53,398.11a6.09,6.09,0,0,1,4.4,1.7,6.26,6.26,0,0,1,0,8.7,6,6,0,0,1-4.4,1.7H290.36a6,6,0,0,1-4.4-1.7,6.26,6.26,0,0,1,0-8.7,6.09,6.09,0,0,1,4.4-1.7Zm-1.21-23.67a17.15,17.15,0,0,1,4.73.66,9,9,0,0,1,3.85,2.15,5.17,5.17,0,0,1,1.55,3.91,5.88,5.88,0,0,1-1.6,4.34,5,5,0,0,1-3.69,1.6,13,13,0,0,1-3-.5,15.82,15.82,0,0,0-3.85-.49,6.53,6.53,0,0,0-4.24,1.21,6.26,6.26,0,0,0-2,2.81,9,9,0,0,0-.55,2.8v56.25a6.56,6.56,0,0,1-1.87,4.78,6.76,6.76,0,0,1-9.46,0,6.56,6.56,0,0,1-1.87-4.78V393a17.75,17.75,0,0,1,5.5-13.2Q307.32,374.44,318.32,374.44Zm21.35,15.41q-3.74,0-5.28-1.21c-1-.81-1.54-2.24-1.54-4.29v-2.09q0-3.19,1.7-4.35a9.44,9.44,0,0,1,5.23-1.16q3.86,0,5.4,1.22c1,.8,1.54,2.23,1.54,4.29v2.09q0,3.19-1.65,4.35C344,389.47,342.17,389.85,339.67,389.85Zm6.72,59.33a6.6,6.6,0,0,1-1.87,4.78,6.77,6.77,0,0,1-9.47,0,6.56,6.56,0,0,1-1.87-4.78V403.72a6.6,6.6,0,0,1,1.87-4.79,6.8,6.8,0,0,1,9.47,0,6.64,6.64,0,0,1,1.87,4.79Z" transform="translate(-116.6 -343.74)"/><path d="M385.9,395.91q8.14,0,12.38,3.41a17.32,17.32,0,0,1,5.83,9.08,46.21,46.21,0,0,1,1.6,12.6v28.18a6.56,6.56,0,0,1-1.87,4.78,6.77,6.77,0,0,1-9.47,0,6.6,6.6,0,0,1-1.87-4.78V421a21.55,21.55,0,0,0-.93-6.55,9.16,9.16,0,0,0-3.36-4.68c-1.61-1.17-3.93-1.76-6.93-1.76a14.56,14.56,0,0,0-7.43,1.76,12.17,12.17,0,0,0-4.63,4.68,13.48,13.48,0,0,0-1.59,6.55v28.18a6.6,6.6,0,0,1-1.87,4.78,6.77,6.77,0,0,1-9.47,0,6.56,6.56,0,0,1-1.87-4.78V403.72a6.6,6.6,0,0,1,1.87-4.79,6.8,6.8,0,0,1,9.47,0,6.64,6.64,0,0,1,1.87,4.79v4.73l-1.65-.33a21.8,21.8,0,0,1,2.86-4,27.16,27.16,0,0,1,4.4-4,22.44,22.44,0,0,1,5.72-3A20.25,20.25,0,0,1,385.9,395.91Z" transform="translate(-116.6 -343.74)"/><path d="M462.17,374.44a6.46,6.46,0,0,1,4.74,1.87,6.6,6.6,0,0,1,1.87,4.85v68a6.6,6.6,0,0,1-1.87,4.78,6.77,6.77,0,0,1-9.47,0,6.56,6.56,0,0,1-1.87-4.78v-5.4l2.42,1a6.17,6.17,0,0,1-1.54,3.47,21,21,0,0,1-4.18,4,25.85,25.85,0,0,1-6.22,3.36,21.6,21.6,0,0,1-7.76,1.37,25.14,25.14,0,0,1-13.76-3.91,27.43,27.43,0,0,1-9.74-10.78,36.88,36.88,0,0,1,0-31.7,27.74,27.74,0,0,1,9.63-10.79,24.29,24.29,0,0,1,13.43-3.9,25.27,25.27,0,0,1,8.69,1.43,25.61,25.61,0,0,1,6.88,3.63,20.81,20.81,0,0,1,4.52,4.46,7.1,7.1,0,0,1,1.59,3.79l-4,1.43V381.16a6.58,6.58,0,0,1,1.87-4.79A6.33,6.33,0,0,1,462.17,374.44Zm-22.23,70.44a14.91,14.91,0,0,0,8.48-2.42,16.31,16.31,0,0,0,5.66-6.6,21.08,21.08,0,0,0,2-9.36,21.3,21.3,0,0,0-2-9.46,16.41,16.41,0,0,0-5.66-6.61,15,15,0,0,0-8.48-2.42,14.73,14.73,0,0,0-8.36,2.42,16.28,16.28,0,0,0-5.67,6.61,21.3,21.3,0,0,0-2,9.46,21.08,21.08,0,0,0,2,9.36,16.18,16.18,0,0,0,5.67,6.6A14.65,14.65,0,0,0,439.94,444.88Z" transform="translate(-116.6 -343.74)"/><path d="M478.24,398.11h26.09a6,6,0,0,1,6.16,6.16,5.68,5.68,0,0,1-1.76,4.24,6.07,6.07,0,0,1-4.4,1.7H478.24a6,6,0,0,1-6.16-6.16,5.64,5.64,0,0,1,1.76-4.24A6.09,6.09,0,0,1,478.24,398.11ZM490,384.35a6.15,6.15,0,0,1,4.68,1.92,6.74,6.74,0,0,1,1.81,4.79v49a4.72,4.72,0,0,0,.61,2.53,3.43,3.43,0,0,0,1.65,1.43,5.61,5.61,0,0,0,2.25.44,5.86,5.86,0,0,0,2.43-.49,6.08,6.08,0,0,1,2.53-.5,3.71,3.71,0,0,1,2.8,1.43,5.77,5.77,0,0,1,1.27,4q0,3.07-3.36,5.06a14,14,0,0,1-7.21,2,38.87,38.87,0,0,1-5.11-.38,13.77,13.77,0,0,1-5.29-1.88,11.43,11.43,0,0,1-4.12-4.56,18,18,0,0,1-1.66-8.48V391.06a6.58,6.58,0,0,1,6.72-6.71Z" transform="translate(-116.6 -343.74)"/><path d="M560.79,397a6.32,6.32,0,0,1,4.73,1.92,6.6,6.6,0,0,1,1.87,4.79v28q0,11.67-6.49,18.49T542.19,457q-12.23,0-18.66-6.82t-6.44-18.49v-28a6.64,6.64,0,0,1,1.87-4.79,6.8,6.8,0,0,1,9.47,0,6.6,6.6,0,0,1,1.87,4.79v28q0,6.7,3,10t8.92,3.24q6,0,9-3.24t3-10v-28a6.6,6.6,0,0,1,1.87-4.79A6.31,6.31,0,0,1,560.79,397Z" transform="translate(-116.6 -343.74)"/><path d="M576.86,398.11h26.08a6,6,0,0,1,6.17,6.16,5.68,5.68,0,0,1-1.76,4.24,6.09,6.09,0,0,1-4.41,1.7H576.86a6,6,0,0,1-6.17-6.16,5.65,5.65,0,0,1,1.77-4.24A6.09,6.09,0,0,1,576.86,398.11Zm11.77-13.76a6.15,6.15,0,0,1,4.68,1.92,6.74,6.74,0,0,1,1.82,4.79v49a4.81,4.81,0,0,0,.6,2.53,3.52,3.52,0,0,0,1.65,1.43,5.66,5.66,0,0,0,2.26.44,5.82,5.82,0,0,0,2.42-.49,6.11,6.11,0,0,1,2.53-.5,3.71,3.71,0,0,1,2.81,1.43,5.82,5.82,0,0,1,1.27,4q0,3.07-3.36,5.06a14,14,0,0,1-7.21,2,39,39,0,0,1-5.12-.38,13.73,13.73,0,0,1-5.28-1.88,11.45,11.45,0,0,1-4.13-4.56,18.14,18.14,0,0,1-1.65-8.48V391.06a6.58,6.58,0,0,1,6.71-6.71Z" transform="translate(-116.6 -343.74)"/><path d="M671.73,426.5a31.06,31.06,0,0,1-4,15.91,28.93,28.93,0,0,1-10.79,10.73,31.67,31.67,0,0,1-30.27,0,28.83,28.83,0,0,1-10.78-10.73,33.47,33.47,0,0,1,0-31.81,29.21,29.21,0,0,1,10.78-10.79,31.32,31.32,0,0,1,30.27,0,29.31,29.31,0,0,1,10.79,10.79A31,31,0,0,1,671.73,426.5Zm-13.2,0a20.05,20.05,0,0,0-2.26-9.74,16.77,16.77,0,0,0-6-6.44,16.5,16.5,0,0,0-16.84,0,16.8,16.8,0,0,0-6.06,6.44,20,20,0,0,0-2.25,9.74,19.8,19.8,0,0,0,2.25,9.63,16.73,16.73,0,0,0,6.06,6.44,16.5,16.5,0,0,0,16.84,0,16.7,16.7,0,0,0,6-6.44A19.8,19.8,0,0,0,658.53,426.5Z" transform="translate(-116.6 -343.74)"/><path d="M683.84,455.89a6.28,6.28,0,0,1-4.73-1.93,6.56,6.56,0,0,1-1.87-4.78V403.72a6.6,6.6,0,0,1,1.87-4.79,6.79,6.79,0,0,1,9.46,0,6.6,6.6,0,0,1,1.87,4.79v10.35l-.77-7.38a17.38,17.38,0,0,1,3.14-4.68,18.68,18.68,0,0,1,4.35-3.41,20,20,0,0,1,5.17-2,23.49,23.49,0,0,1,5.5-.66,8.38,8.38,0,0,1,5.56,1.87,5.56,5.56,0,0,1,2.26,4.4c0,2.42-.63,4.16-1.87,5.23a6.18,6.18,0,0,1-4.07,1.59,9,9,0,0,1-3.8-.77,9.47,9.47,0,0,0-3.91-.77,9.66,9.66,0,0,0-4,.94,11.09,11.09,0,0,0-3.74,2.91,15.53,15.53,0,0,0-2.75,4.9,20.35,20.35,0,0,0-1,6.88v26.09a6.56,6.56,0,0,1-1.87,4.78A6.29,6.29,0,0,1,683.84,455.89Z" transform="translate(-116.6 -343.74)"/></svg>